<svg xmlns="http://www.w3.org/2000/svg" viewBox="0 0 40 40"><defs><style>.cls-1{fill:none;opacity:0.03;}.cls-2{fill:#848484;}.cls-3{fill:#a8aaac;}.cls-4{fill:#d4d6d7;}.cls-5{fill:#ffc43d;}.cls-6{fill:#dc9742;}.cls-7{fill:#babcbf;}.cls-8{fill:#fffbdb;}.cls-9{fill:#ffd96b;}.cls-10{fill:#636871;}.cls-11{fill:#989a9c;}.cls-12{fill:#bcbec0;opacity:0.43;}.cls-13{fill:#b6b8b9;opacity:0.69;}.cls-14{fill:#afb1b3;opacity:0.78;}.cls-15{fill:#a9abad;}.cls-16{fill:#a1a3a5;}</style></defs><title>Asset 2</title><g id="Layer_2" data-name="Layer 2"><g id="Layer_1-2" data-name="Layer 1"><rect class="cls-1" width="40" height="40"/><rect class="cls-2" x="17.01" y="30.77" width="5.99" height="9.23"/><rect class="cls-3" x="18.09" y="30.77" width="3.82" height="9.23"/><rect class="cls-4" x="18.09" y="30.77" width="1.91" height="9.23"/><rect class="cls-5" x="6.95" width="2.75" height="5.3"/><rect class="cls-6" x="8.33" y="1.26" width="1.37" height="4.04"/><rect class="cls-2" x="5.71" y="6.37" width="4.93" height="10.26"/><rect class="cls-4" x="6.81" y="6.37" width="3.93" height="9.01"/><rect class="cls-3" x="8.33" y="6.37" width="2.32" height="9.01"/><polygon class="cls-2" points="21.03 21.07 13.77 21.07 9.79 16.56 9.7 6.37 21.03 6.37 21.03 6.37 21.03 21.07"/><polygon class="cls-2" points="21.02 25.5 18.98 25.5 15.91 25.5 15.91 30.96 18.98 30.96 21.02 30.96 24.09 30.96 24.09 25.5 21.02 25.5"/><polygon class="cls-4" points="21.06 25.4 18.94 25.4 17.01 25.4 17.01 29.92 18.94 29.92 21.06 29.92 22.99 29.92 22.99 25.4 21.06 25.4"/><polygon class="cls-3" points="21.06 27.48 18.94 27.48 18.09 27.48 18.09 29.92 18.94 29.92 21.06 29.92 21.91 29.92 21.91 27.48 21.06 27.48"/><polygon class="cls-7" points="21.04 28.7 18.96 28.7 18.09 28.7 18.09 29.92 18.96 29.92 21.04 29.92 21.91 29.92 21.91 28.7 21.04 28.7"/><rect class="cls-5" x="30.3" width="2.75" height="5.3" transform="translate(63.35 5.3) rotate(-180)"/><rect class="cls-6" x="30.3" y="1.26" width="1.37" height="4.04" transform="translate(61.98 6.57) rotate(-180)"/><polygon class="cls-6" points="21 0 19 0 12.17 0 12.17 5.3 19 5.3 21 5.3 27.83 5.3 27.83 0 21 0"/><polygon class="cls-8" points="21 1.26 19 1.26 13.37 1.26 13.37 5.3 19 5.3 21 5.3 26.64 5.3 26.64 1.26 21 1.26"/><polygon class="cls-9" points="21 2.33 19 2.33 13.37 2.33 13.37 5.3 19 5.3 21 5.3 26.64 5.3 26.64 2.33 21 2.33"/><rect class="cls-2" x="29.36" y="6.37" width="4.93" height="10.26" transform="translate(63.64 22.99) rotate(-180)"/><rect class="cls-4" x="29.26" y="6.37" width="3.93" height="9.01" transform="translate(62.45 21.74) rotate(-180)"/><rect class="cls-3" x="29.36" y="6.37" width="2.32" height="9.01" transform="translate(61.03 21.74) rotate(-180)"/><polygon class="cls-10" points="21.03 5.3 18.97 5.3 4.24 5.3 4.24 6.37 18.97 6.37 21.03 6.37 35.76 6.37 35.76 5.3 21.03 5.3"/><polygon class="cls-2" points="18.97 21.07 26.23 21.07 30.21 16.56 30.3 6.37 18.97 6.37 18.97 6.37 18.97 21.07"/><polygon class="cls-4" points="21.03 20.15 14.29 20.15 10.74 15.37 10.74 6.37 21.03 6.37 21.03 6.37 21.03 20.15"/><polygon class="cls-4" points="18.97 20.15 25.71 20.15 29.26 15.37 29.26 6.37 18.97 6.37 18.97 6.37 18.97 20.15"/><path class="cls-11" d="M27.9,9.46c0-.56,0-1.08,0-1.66H12.11c0,.58,0,1.1,0,1.66H27.9Z"/><path class="cls-12" d="M28,16.64H12.05v1.79H28C28,17.83,28,17.24,28,16.64Z"/><path class="cls-13" d="M27.94,14.85H12.06c0,.6,0,1.19,0,1.79H28C28,16,27.94,15.45,27.94,14.85Z"/><path class="cls-14" d="M27.94,14.67c0-.54,0-1.08,0-1.61H12.07c0,.53,0,1.07,0,1.61v.18H27.94Z"/><path class="cls-15" d="M27.92,11.26H12.08c0,.6,0,1.2,0,1.8H27.93C27.93,12.46,27.93,11.86,27.92,11.26Z"/><path class="cls-16" d="M27.9,9.46H12.1c0,.6,0,1.2,0,1.8H27.92C27.91,10.66,27.91,10.06,27.9,9.46Z"/><polygon class="cls-2" points="25.95 21.19 25.03 20.11 29.46 15.19 30.38 16.27 25.95 21.19"/><polygon class="cls-2" points="21.06 21 18.94 21 13.74 21 13.74 26.46 18.94 26.46 21.06 26.46 26.26 26.46 26.26 21 21.06 21"/><polygon class="cls-4" points="21.06 20.91 18.94 20.91 14.83 20.91 14.83 25.43 18.94 25.43 21.06 25.43 25.17 25.43 25.17 20.91 21.06 20.91"/><polygon class="cls-3" points="21.07 22.04 18.93 22.04 15.91 22.04 15.91 24.48 18.93 24.48 21.07 24.48 24.09 24.48 24.09 22.04 21.07 22.04"/><polygon class="cls-7" points="21.07 23.26 18.93 23.26 15.91 23.26 15.91 24.48 18.93 24.48 21.07 24.48 24.09 24.48 24.09 23.26 21.07 23.26"/><polygon class="cls-2" points="14.05 21.15 14.97 20.07 10.59 15.2 9.67 16.27 14.05 21.15"/><polygon class="cls-4" points="25.14 19.94 24.22 18.87 28.34 14.27 29.27 15.34 25.14 19.94"/><polygon class="cls-4" points="14.86 19.94 15.78 18.87 11.66 14.27 10.74 15.34 14.86 19.94"/><rect class="cls-2" x="14.33" y="19.7" width="11.34" height="0.69"/></g></g></svg>